<?xml version="1.0" encoding="utf-8"?>
<!-- Generator: Adobe Illustrator 22.1.0, SVG Export Plug-In . SVG Version: 6.00 Build 0)  -->
<svg version="1.1" id="Layer_1" xmlns="http://www.w3.org/2000/svg" xmlns:xlink="http://www.w3.org/1999/xlink" x="0px" y="0px"
	 viewBox="0 0 1366 768" style="enable-background:new 0 0 1366 768;" xml:space="preserve">
<style type="text/css">
	.st0{fill:#00995C;}
	.st1{fill:#FFFFFF;}
	.st2{fill-rule:evenodd;clip-rule:evenodd;fill:#FFFFFF;}
</style>
<g>
	<g>
		<path class="st0" d="M152.7,420.3c-27.4,0-49.6-22.3-49.6-49.7v-141c0-27.4,22.3-49.7,49.6-49.7h589.7c27.4,0,49.7,22.3,49.7,49.7
			v190.6H152.7z"/>
		<path class="st1" d="M742.4,184.1c25.2,0,45.6,20.4,45.6,45.6v186.6H152.7c-25.2,0-45.6-20.4-45.6-45.6v-141
			c0-25.2,20.4-45.6,45.6-45.6H742.4 M742.4,176H152.7c-29.6,0-53.7,24.1-53.7,53.7v141c0,29.6,24.1,53.7,53.7,53.7H788h8.1v-8.1
			V229.7C796.1,200.1,772,176,742.4,176L742.4,176z"/>
	</g>
	<g>
		<g>
			<polygon class="st2" points="659.9,263.9 684.1,263.9 720.6,312.4 696.3,312.4 714.5,336.6 684.1,336.6 666,312.4 678,312.4 
				659.9,288.2 678,288.2 659.9,263.9 			"/>
			<polygon class="st2" points="659.9,263.9 635.6,263.9 599.2,312.4 623.4,312.4 605.3,336.6 635.6,336.6 653.8,312.4 641.6,312.4 
				659.9,288.2 641.7,288.2 659.9,263.9 			"/>
		</g>
		<path class="st2" d="M200.6,268.8h-25.9v41.2c0,19.9,14.8,27.7,33.6,27.7c20.4,0,34-7.3,34-29.2v-39.7h-25.4v40.2
			c0,6.6-1.5,11.2-8.2,11.2c-6.3,0-8.1-4.8-8.1-11.2V268.8L200.6,268.8z"/>
		<path class="st2" d="M248.7,336.6h24.4v-29.2c0-2.8,0-6.7,4.4-6.7c4.3,0,4.3,3.9,4.3,6.7v29.2h24.4v-35.1
			c0-9.9-4.8-16.6-17.8-16.6c-6.9,0-13.5,2.8-16.5,9.9h-0.2V286h-23.1V336.6L248.7,336.6z"/>
		<path class="st2" d="M314.7,336.6h24.4V286h-24.4V336.6L314.7,336.6z M339.1,263.9h-24.4v16.8h24.4V263.9L339.1,263.9z"/>
		<path class="st2" d="M347.1,336.6h24.4v-29.2c0-2.8,0-6.7,4.5-6.7c4.1,0,4.1,3.9,4.1,6.7v29.2h24.6v-29.2c0-2.8,0-6.7,4.1-6.7
			c4.4,0,4.4,3.9,4.4,6.7v29.2h24.4v-30.3c0-9.9,0-21.4-17.8-21.4c-6.1,0-14.5,2.8-16.2,8.7h-0.2c-2-6.1-9.1-8.7-15.8-8.7
			c-7.8,0-14.4,2.8-17.3,9.9h-0.2V286h-23.1V336.6L347.1,336.6z"/>
		<path class="st2" d="M466.5,306.4c-0.3-4,0.8-9.9,6.6-9.9c5.4,0,6.1,6.1,6.1,9.9H466.5L466.5,306.4z M500.3,317.1v-3
			c0-17.1-6.9-29.3-26.6-29.3c-20.4,0-31.3,8.6-31.3,25.5c0,17.5,10.9,27.4,31.3,27.4c8.6,0,16.3-1,22.8-3v-13
			c-3.8,2-9.9,3.1-16.5,3.1c-7.2,0-13-1.5-13.5-7.8H500.3L500.3,317.1z"/>
		<path class="st2" d="M566.8,336.6v-72.7h-24.4v28.7h-0.2c-3.8-5.5-8.7-7.8-15.3-7.8c-15.2,0-21.4,12-21.4,25.7
			c0,14.5,5.9,27.2,22.3,27.2c7.9,0,12.9-2.8,16.1-10.4h0.2v9.2H566.8L566.8,336.6z M543.1,311c0,4.8-0.8,10.4-5.9,10.4
			c-5.4,0-6.3-5.6-6.3-10.9s0.8-10.6,5.9-10.6C542.2,300,543.1,305.3,543.1,311L543.1,311z"/>
		<polygon class="st2" points="587.1,348.7 587.1,251.7 583,251.7 583,348.7 587.1,348.7 587.1,348.7 		"/>
	</g>
</g>
</svg>
